<svg xmlns="http://www.w3.org/2000/svg" width="35" height="35"><path d="M27.9 8.1A13.909 13.909 0 0 0 18 4a13.91 13.91 0 0 0-9.9 4.1A13.909 13.909 0 0 0 4 18a13.91 13.91 0 0 0 4.1 9.9A13.909 13.909 0 0 0 18 32a13.91 13.91 0 0 0 9.9-4.1A13.909 13.909 0 0 0 32 18a13.91 13.91 0 0 0-4.1-9.9zM17.18 30.331C10.746 29.908 5.64 24.54 5.64 18c0-6.54 5.106-11.908 11.54-12.331V30.33zM18.82 5.67c1.949.128 3.775.71 5.375 1.64H18.82V5.67zm0 3.28h7.587c.542.505 1.04 1.056 1.485 1.65H18.82V8.95zm0 3.29h10.112c.28.529.522 1.08.724 1.65H18.82v-1.65zm0 3.29h11.291c.11.539.184 1.09.22 1.65h-11.51v-1.65zm0 14.802v-1.64h5.375c-1.6.93-3.426 1.512-5.375 1.64zm7.587-3.28H18.82V25.4h9.072a12.462 12.462 0 0 1-1.485 1.65zm2.525-3.29H18.82v-1.65h10.836c-.202.57-.444 1.12-.724 1.65zm1.18-3.29H18.82v-1.65h11.511a12.32 12.32 0 0 1-.22 1.65z"/></svg>