<svg xmlns="http://www.w3.org/2000/svg" width="80" height="80"><path fill="#FFF" d="M62.51 69.21H45.344V51.866h5.673c1.438 0 2.288-1.634 1.438-2.811L41.422 33.787a1.758 1.758 0 0 0-2.86 0L27.528 49.055c-.85 1.177-.017 2.811 1.438 2.811h5.672V69.21H15.415C6.833 68.736 0 60.71 0 52.013c0-5.999 3.253-11.23 8.075-14.058a10.918 10.918 0 0 1-.67-3.808c0-6.13 4.953-11.083 11.083-11.083 1.324 0 2.599.229 3.792.67C25.828 16.214 33.478 11 42.37 11c11.508.016 20.99 8.827 22.068 20.057C73.282 32.577 80 40.767 80 50.036c0 9.906-7.716 18.487-17.49 19.174z"/></svg>