<svg xmlns="http://www.w3.org/2000/svg" width="50" height="50" viewBox="0 0 50 50">
  <path fill="#FFF" d="M47.8355216,22.3370887 L7.38942611,22.3370887 L17.0404546,12.6921447 C17.8859461,11.8477405 17.8859461,10.4779571 17.0404546,9.63367785 C16.1949631,8.78877405 14.8242268,8.78877405 13.9799852,9.63367785 L0.634118659,22.9705168 C-0.211372886,23.8149209 -0.211372886,25.1848293 0.634118659,26.0289836 L13.9799852,39.3664471 C14.402606,39.7890239 14.9564754,40 15.5102199,40 C16.0639644,40 16.6178338,39.7890239 17.0404546,39.3664471 C17.8859461,38.5220429 17.8859461,37.1522595 17.0404546,36.3081052 L7.38942611,26.6626614 L47.8355216,26.6626614 C49.0307597,26.6626614 50,25.6942198 50,24.4998126 C50,23.3054055 49.0308847,22.3370887 47.8355216,22.3370887 Z" transform="rotate(-180 25 24.5)"/>
</svg>
