<svg xmlns="http://www.w3.org/2000/svg" width="35" height="35" viewBox="0 0 35 35" fill="#415058">
  <path d="M23.9966404,20.3654185 C23.9966404,23.8083006 21.1954326,26.6092893 17.7527697,26.6092893 L15.5425506,26.6092893 C15.1762865,26.6092893 14.8794775,26.3125169 14.8794775,25.9462528 L14.8794775,25.7252163 C14.8794775,25.3589157 15.17625,25.0621433 15.5425506,25.0621433 L17.7527697,25.0621433 C20.3424354,25.0621433 22.4494944,22.9550843 22.4494944,20.3654185 C22.4494944,17.7757528 20.3424354,15.6686938 17.7527697,15.6686938 L13.6750421,15.6686938 L16.4833708,18.4770225 C16.785,18.7785421 16.785,19.2694017 16.4833708,19.5709213 C16.1906882,19.8633848 15.6813146,19.8629466 15.3892893,19.5709213 L11.2606208,15.4421433 C11.1145169,15.2960393 11.0339972,15.1017697 11.0339972,14.8950843 C11.0339972,14.6885449 11.1145169,14.4941657 11.2606208,14.3481348 L15.3895084,10.2191742 C15.6815337,9.92692978 16.1913455,9.92692978 16.4834073,10.2191742 C16.7850365,10.5206208 16.7850365,11.0115534 16.4834073,11.3129635 L13.6750787,14.1215112 L17.7527697,14.1215112 C21.1954326,14.1215112 23.9966404,16.9226096 23.9966404,20.3654185 Z"/>
</svg>
