<svg xmlns="http://www.w3.org/2000/svg" width="35" height="35" viewBox="0 0 35 35">
  <path d="M27.8995312,8.10046875 C25.2552266,5.45627344 21.7395312,4 18,4 C14.2604688,4 10.7447734,5.45627344 8.10046875,8.10046875 C5.45627344,10.7447188 4,14.2604688 4,18 C4,21.7395312 5.45627344,25.2552812 8.10046875,27.8995312 C10.7447734,30.5437266 14.2604688,32 18,32 C21.7395312,32 25.2552266,30.5437266 27.8995312,27.8995312 C30.5437266,25.2552812 32,21.7395312 32,18 C32,14.2604688 30.5437266,10.7447188 27.8995312,8.10046875 Z M17.1796875,30.3314844 C10.7457578,29.9077656 5.640625,24.5392578 5.640625,18 C5.640625,11.4607422 10.7457578,6.09223437 17.1796875,5.66851562 L17.1796875,30.3314844 Z M18.8203125,5.66851562 C20.7686094,5.7968125 22.5949531,6.37814063 24.1946172,7.30859375 L18.8203125,7.30859375 L18.8203125,5.66851562 Z M18.8203125,8.94921875 L26.4068359,8.94921875 C26.9493906,9.45354688 27.4472109,10.0053984 27.8924219,10.5989219 L18.8203125,10.5989219 L18.8203125,8.94921875 Z M18.8203125,12.2395469 L28.9320312,12.2395469 C29.2116484,12.7680469 29.4539687,13.3191328 29.6556562,13.8893047 L18.8203125,13.8893047 L18.8203125,12.2395469 Z M18.8203125,15.5299297 L30.1112031,15.5299297 C30.2207969,16.068 30.2945156,16.6188672 30.3314844,17.1796875 L18.8203125,17.1796875 L18.8203125,15.5299297 Z M18.8203125,30.3314844 L18.8203125,28.6914062 L24.1946172,28.6914062 C22.5949531,29.6218594 20.7685547,30.2031875 18.8203125,30.3314844 Z M26.4068359,27.0507813 L18.8203125,27.0507813 L18.8203125,25.4010234 L27.8924219,25.4010234 C27.4472109,25.9946563 26.9493906,26.5464531 26.4068359,27.0507813 Z M28.9320313,23.7603984 L18.8203125,23.7603984 L18.8203125,22.1106406 L29.6556562,22.1106406 C29.4539688,22.6808125 29.2116484,23.2318984 28.9320313,23.7603984 Z M30.1112031,20.4700703 L18.8203125,20.4700703 L18.8203125,18.8203125 L30.3314844,18.8203125 C30.2945703,19.3810781 30.2207969,19.9319453 30.1112031,20.4700703 Z"/>
</svg>
