<svg xmlns="http://www.w3.org/2000/svg" width="35" height="35" viewBox="0 0 35 35">
  <path d="M33,18.4587629 L33,16.5412371 L28.2801381,16.5412371 C28.080332,14.2759361 27.1799258,12.2089072 25.797134,10.5587485 L29.1381031,7.21777938 L27.7822206,5.86189691 L24.4412515,9.20286598 C22.7910928,7.82007423 20.7240639,6.91966804 18.4587629,6.71986186 L18.4587629,2 L16.5412371,2 L16.5412371,6.71986186 C14.2759361,6.91966804 12.2089072,7.82007423 10.5587485,9.20286598 L7.21777938,5.86189691 L5.86189691,7.21777938 L9.20286598,10.5587485 C7.82007423,12.2089072 6.91966804,14.2759361 6.71986186,16.5412371 L2,16.5412371 L2,18.4587629 L6.71986186,18.4587629 C6.91966804,20.7240639 7.82007423,22.7910928 9.20286598,24.4412515 L5.86189691,27.7822206 L7.21777938,29.1381031 L10.5587485,25.797134 C12.2089711,27.1799258 14.2759361,28.080332 16.5412371,28.2801381 L16.5412371,33 L18.4587629,33 L18.4587629,28.2801381 C20.7240639,28.080332 22.7910928,27.1799258 24.4412515,25.797134 L27.7822206,29.1381031 L29.1381031,27.7822206 L25.797134,24.4412515 C27.1799258,22.7910289 28.080332,20.7240639 28.2801381,18.4587629 L33,18.4587629 Z M17.5,26.4055649 C12.5894722,26.4055649 8.59443505,22.4105278 8.59443505,17.5 C8.59443505,12.5894722 12.5894722,8.59443505 17.5,8.59443505 C22.4105278,8.59443505 26.4055649,12.5894722 26.4055649,17.5 C26.4055649,22.4105278 22.4105278,26.4055649 17.5,26.4055649 Z"/>
</svg>
