<svg xmlns="http://www.w3.org/2000/svg" width="35" height="35" viewBox="0 0 35 35">
  <path d="M31.9073846,28.8304348 C31.9106154,28.6934783 31.8912308,28.55 31.8169231,28.4228261 L18.6353846,5.37826087 C18.6353846,5.375 18.6289231,5.37173913 18.6289231,5.36847826 C18.5869231,5.3 18.532,5.24130435 18.4673846,5.1826087 C18.448,5.16630435 18.4318462,5.15 18.4092308,5.13369565 C18.3930769,5.12065217 18.3801538,5.10108696 18.3607692,5.09130435 C18.322,5.06847826 18.28,5.06521739 18.238,5.04891304 C18.1992308,5.03586957 18.1636923,5.01956522 18.1249231,5.00978261 C18.0732308,5 18.0215385,5 17.9698462,5 C17.9181538,5 17.8696923,5 17.818,5.00978261 C17.776,5.01956522 17.7404615,5.03586957 17.7016923,5.04891304 C17.6596923,5.06521739 17.6144615,5.06847826 17.5756923,5.09130435 C17.5563077,5.10434783 17.5466154,5.12065217 17.5304615,5.13369565 C17.5078462,5.15 17.4916923,5.16630435 17.4723077,5.18586957 C17.4076923,5.24130435 17.3527692,5.3 17.3107692,5.36847826 C17.3107692,5.37173913 17.3043077,5.37173913 17.3043077,5.37826087 L4.12276923,28.4228261 C4.10338462,28.4521739 4.10338462,28.4847826 4.09046154,28.5173913 C4.06784615,28.5630435 4.05492308,28.6152174 4.03876923,28.6673913 C4.03553846,28.6934783 4.02584615,28.7163043 4.02584615,28.7391304 C4.01938462,28.7815217 4,28.8206522 4,28.8630435 C4,29.2934783 4.34892308,29.6456522 4.77538462,29.6456522 L31.1384615,29.6456522 C31.5003077,29.6456522 31.7878462,29.3913043 31.8750769,29.0554348 C31.888,29.0130435 31.8944615,28.973913 31.9009231,28.9315217 C31.9009231,28.9086957 31.9138462,28.8891304 31.9138462,28.8630435 C31.9138462,28.85 31.9073846,28.8434783 31.9073846,28.8304348 Z M6.10646154,28.0804348 L17.9698462,7.34456522 L29.8332308,28.0804348 L6.10646154,28.0804348 Z"/>
</svg>
