<svg xmlns="http://www.w3.org/2000/svg" width="35" height="35" viewBox="0 0 35 35">
  <path d="M23.2527119,11.1265469 C20.9746893,7.68347656 18.6635593,4.84377344 18.6405085,4.81544531 L17.9750282,4 L17.3096045,4.8155 C17.2865537,4.84377344 14.9754237,7.68347656 12.6974011,11.1266016 C9.58039548,15.8376016 8,19.4047031 8,21.7287031 C8,27.39225 12.4748023,31.9998906 17.9751412,31.9998906 C23.4754802,31.9998906 27.9502825,27.39225 27.9502825,21.7287031 C27.950226,19.4047578 26.369774,15.8376563 23.2527119,11.1265469 Z M17.9750282,30.3583359 C13.409887,30.3583359 9.69587571,26.4871172 9.69587571,21.7287578 C9.69587571,19.7537188 11.2250847,16.3975469 14.1181356,12.0231484 C15.619322,9.75334375 17.1354237,7.7506875 17.9750282,6.673125 C18.8146328,7.75063281 20.330678,9.75334375 21.8319209,12.0231484 C24.7249718,16.3975469 26.2541808,19.7537188 26.2541808,21.7287578 C26.2542373,26.4871172 22.5401695,30.3583359 17.9750282,30.3583359 Z"/>
</svg>
