<svg xmlns="http://www.w3.org/2000/svg" width="250" height="58" viewBox="0 0 250 58">
  <g fill="#FFF" fill-rule="evenodd">
    <path d="M85.385984,16.546112 C82.5474418,16.546112 80.4111752,17.1892096 78.97712,18.475424 C77.5430648,19.7616384 76.826048,21.6317957 76.826048,24.085952 L76.826048,27.634112 L91.018688,27.634112 L91.018688,31.448384 L76.826048,31.448384 L76.826048,44 L72.390848,44 L72.390848,24.0416 C72.390848,20.4638541 73.5218127,17.6623141 75.783776,15.636896 C78.0457393,13.6114779 81.2020917,12.598784 85.252928,12.598784 C87.0270169,12.598784 88.6828083,12.798366 90.220352,13.197536 C91.7578957,13.596706 93.0884424,14.1806682 94.212032,14.94944 L92.748416,18.630656 C90.7673501,17.2409531 88.3132306,16.546112 85.385984,16.546112 Z M107.067776,44.266112 C104.791029,44.266112 103.03175,43.6377983 101.789888,42.381152 C100.548026,41.1245057 99.927104,39.3578354 99.927104,37.081088 L99.927104,11.090816 L104.184896,11.090816 L104.184896,36.726272 C104.184896,37.9977024 104.487965,38.9734366 105.094112,39.653504 C105.700259,40.3335714 106.609466,40.6736 107.82176,40.6736 C108.560964,40.6736 109.255805,40.5257615 109.906304,40.23008 L110.128064,43.733888 C109.152315,44.0887058 108.132229,44.266112 107.067776,44.266112 Z M137.087744,20.49344 L137.087744,40.806656 C137.087744,44.9166285 136.126794,47.9547102 134.204864,49.920992 C132.282934,51.8872738 129.400083,52.8704 125.556224,52.8704 C123.456885,52.8704 121.453674,52.567331 119.546528,51.961184 C117.639382,51.355037 116.079686,50.4901816 114.867392,49.366592 L116.951936,46.084544 C117.986821,47.0307247 119.236057,47.7699173 120.69968,48.302144 C122.163303,48.8343707 123.708216,49.10048 125.334464,49.10048 C127.906893,49.10048 129.799226,48.4573824 131.01152,47.171168 C132.223814,45.8849536 132.829952,43.9113093 132.829952,41.250176 L132.829952,39.520448 C131.972476,40.6440376 130.863687,41.508893 129.503552,42.11504 C128.143417,42.721187 126.665032,43.024256 125.068352,43.024256 C121.934128,43.024256 119.465225,42.1667926 117.661568,40.45184 C115.857911,38.7368874 114.956096,36.1940649 114.956096,32.823296 L114.956096,20.49344 L119.213888,20.49344 L119.213888,32.335424 C119.213888,34.5826032 119.760891,36.2901382 120.854912,37.45808 C121.948933,38.6260218 123.516022,39.209984 125.556224,39.209984 C127.803403,39.209984 129.577465,38.5299268 130.878464,37.169792 C132.179462,35.8096572 132.829952,33.8877564 132.829952,31.404032 L132.829952,20.49344 L137.087744,20.49344 Z M156.463232,44.266112 C154.068212,44.266112 151.931945,43.7486772 150.054368,42.713792 C148.176791,41.6789068 146.705797,40.2522651 145.641344,38.433824 C144.576891,36.6153829 144.044672,34.5530355 144.044672,32.24672 C144.044672,29.9404045 144.576891,27.8780571 145.641344,26.059616 C146.705797,24.2411749 148.176791,22.8219251 150.054368,21.801824 C151.931945,20.7817229 154.068212,20.27168 156.463232,20.27168 C158.592139,20.27168 160.491864,20.7004117 162.162464,21.557888 C163.833064,22.4153643 165.126651,23.6572079 166.043264,25.283456 L162.805568,27.368 C162.066364,26.2444104 161.149765,25.4017308 160.055744,24.839936 C158.961723,24.2781412 157.749447,23.997248 156.41888,23.997248 C154.881336,23.997248 153.499046,24.3372766 152.271968,25.017344 C151.04489,25.6974114 150.083939,26.6657537 149.389088,27.9224 C148.694237,29.1790463 148.346816,30.6204719 148.346816,32.24672 C148.346816,33.9025363 148.694237,35.3587457 149.389088,36.615392 C150.083939,37.8720383 151.04489,38.8403806 152.271968,39.520448 C153.499046,40.2005154 154.881336,40.540544 156.41888,40.540544 C157.749447,40.540544 158.961723,40.2596508 160.055744,39.697856 C161.149765,39.1360612 162.066364,38.2933816 162.805568,37.169792 L166.043264,39.209984 C165.126651,40.8362321 163.833064,42.0854676 162.162464,42.957728 C160.491864,43.8299884 158.592139,44.266112 156.463232,44.266112 Z M194.377856,20.49344 L194.377856,44 L190.297472,44 L190.297472,40.274432 C189.351291,41.5754305 188.153799,42.5659486 186.70496,43.246016 C185.256121,43.9260834 183.659465,44.266112 181.914944,44.266112 C179.638197,44.266112 177.598025,43.763461 175.794368,42.758144 C173.990711,41.752827 172.578853,40.3409691 171.558752,38.522528 C170.538651,36.7040869 170.028608,34.6121718 170.028608,32.24672 C170.028608,29.8812682 170.538651,27.796745 171.558752,25.993088 C172.578853,24.189431 173.990711,22.784965 175.794368,21.779648 C177.598025,20.774331 179.638197,20.27168 181.914944,20.27168 C183.600328,20.27168 185.152633,20.5895328 186.571904,21.225248 C187.991175,21.8609632 189.173883,22.7997378 190.120064,24.0416 L190.120064,20.49344 L194.377856,20.49344 Z M182.26976,40.540544 C183.748167,40.540544 185.093498,40.1931235 186.305792,39.498272 C187.518086,38.8034205 188.464253,37.8276863 189.14432,36.57104 C189.824387,35.3143937 190.164416,33.8729681 190.164416,32.24672 C190.164416,30.6204719 189.824387,29.1790463 189.14432,27.9224 C188.464253,26.6657537 187.518086,25.6974114 186.305792,25.017344 C185.093498,24.3372766 183.748167,23.997248 182.26976,23.997248 C180.761784,23.997248 179.409062,24.3372766 178.211552,25.017344 C177.014042,25.6974114 176.067875,26.6657537 175.373024,27.9224 C174.678173,29.1790463 174.330752,30.6204719 174.330752,32.24672 C174.330752,33.8729681 174.678173,35.3143937 175.373024,36.57104 C176.067875,37.8276863 177.014042,38.8034205 178.211552,39.498272 C179.409062,40.1931235 180.761784,40.540544 182.26976,40.540544 Z M207.544064,24.440768 C208.283268,23.0806332 209.377273,22.0457635 210.826112,21.336128 C212.274951,20.6264925 214.03423,20.27168 216.104,20.27168 L216.104,24.396416 C215.867455,24.3668479 215.54221,24.352064 215.128256,24.352064 C212.82194,24.352064 211.010919,25.0395131 209.695136,26.414432 C208.379353,27.7893509 207.721472,29.7482113 207.721472,32.291072 L207.721472,44 L203.46368,44 L203.46368,20.49344 L207.544064,20.49344 L207.544064,24.440768 Z M244.305536,11.090816 L244.305536,44 L240.225152,44 L240.225152,40.274432 C239.278971,41.5754305 238.081479,42.5659486 236.63264,43.246016 C235.183801,43.9260834 233.587145,44.266112 231.842624,44.266112 C229.565877,44.266112 227.525705,43.763461 225.722048,42.758144 C223.918391,41.752827 222.506533,40.3409691 221.486432,38.522528 C220.466331,36.7040869 219.956288,34.6121718 219.956288,32.24672 C219.956288,29.8812682 220.466331,27.796745 221.486432,25.993088 C222.506533,24.189431 223.918391,22.784965 225.722048,21.779648 C227.525705,20.774331 229.565877,20.27168 231.842624,20.27168 C233.528008,20.27168 235.080313,20.5895328 236.499584,21.225248 C237.918855,21.8609632 239.101563,22.7997378 240.047744,24.0416 L240.047744,11.090816 L244.305536,11.090816 Z M232.19744,40.540544 C233.675847,40.540544 235.021178,40.1931235 236.233472,39.498272 C237.445766,38.8034205 238.391933,37.8276863 239.072,36.57104 C239.752067,35.3143937 240.092096,33.8729681 240.092096,32.24672 C240.092096,30.6204719 239.752067,29.1790463 239.072,27.9224 C238.391933,26.6657537 237.445766,25.6974114 236.233472,25.017344 C235.021178,24.3372766 233.675847,23.997248 232.19744,23.997248 C230.689464,23.997248 229.336742,24.3372766 228.139232,25.017344 C226.941722,25.6974114 225.995555,26.6657537 225.300704,27.9224 C224.605852,29.1790463 224.258432,30.6204719 224.258432,32.24672 C224.258432,33.8729681 224.605852,35.3143937 225.300704,36.57104 C225.995555,37.8276863 226.941722,38.8034205 228.139232,39.498272 C229.336742,40.1931235 230.689464,40.540544 232.19744,40.540544 Z"/>
    <path fill-rule="nonzero" d="M0,57.4635 C0,57.4635 18.6824444,-2.26038889 57.5778889,0.1885 C57.5778889,0.1885 52.7542222,8.00077778 40.5790556,10.5253889 C40.5790556,10.5253889 46.2469444,11.2165556 50.8402222,9.68438889 C50.8402222,9.68438889 48.0836111,18.5696667 33.0777222,19.7908889 C33.0777222,19.7908889 41.3475556,21.9352778 45.0225,20.7092222 C45.0225,20.7092222 44.0252222,27.3325 28.7470556,30.624 C27.8416111,30.8173333 21.7435556,32.3430556 26.6429444,32.9568889 C26.6429444,32.9568889 33.6851111,34.1861667 35.5266111,33.5707222 C35.5266111,33.5707222 29.4946111,42.6042222 14.6981667,41.8389444 C13.2433333,41.7632222 12.5521667,41.8389444 12.5521667,41.8389444 L0,57.4635 Z"/>
  </g>
</svg>
