<svg xmlns="http://www.w3.org/2000/svg" width="35" height="35" viewBox="0 0 35 35" fill="#1383DC">
  <path d="M6,29.7303321 C6,29.7303321 13.7306667,5.01699879 29.8253333,6.03033212 C29.8253333,6.03033212 27.8293333,9.26299879 22.7913333,10.3076655 C22.7913333,10.3076655 25.1366667,10.5936655 27.0373333,9.95966545 C27.0373333,9.95966545 25.8966667,13.6363321 19.6873333,14.1416655 C19.6873333,14.1416655 23.1093333,15.0289988 24.63,14.5216655 C24.63,14.5216655 24.2173333,17.2623321 17.8953333,18.6243321 C17.5206667,18.7043321 14.9973333,19.3356655 17.0246667,19.5896655 C17.0246667,19.5896655 19.9386667,20.0983321 20.7006667,19.8436655 C20.7006667,19.8436655 18.2046667,23.5816655 12.082,23.2649988 C11.48,23.2336655 11.194,23.2649988 11.194,23.2649988 L6,29.7303321 Z"/>
</svg>
