<svg xmlns="http://www.w3.org/2000/svg" width="35" height="35" viewBox="0 0 35 35">
  <path fill="#1383DC" d="M23.7219162,17.0759204 L17.9118603,11.2658645 C17.5573743,10.9113785 16.9824693,10.9113785 16.6279832,11.2658645 C16.2734246,11.6204232 16.2734246,12.195183 16.6279832,12.5497416 L20.8882793,16.8100377 L11.9078212,16.8100377 C11.406486,16.8100377 11,17.2165237 11,17.7178589 C11,18.2191215 11.406486,18.6256802 11.9078212,18.6256802 L20.8882793,18.6256802 L16.6281285,22.8859763 C16.2735698,23.2405349 16.2735698,23.8152947 16.6281285,24.1698534 C16.8053352,24.3469874 17.0377374,24.435736 17.270067,24.435736 C17.5023966,24.435736 17.7347263,24.3469874 17.9120056,24.1698534 L23.7219162,18.3597975 C24.0764749,18.0052388 24.0764749,17.4304791 23.7219162,17.0759204 Z"/>
</svg>
