<svg xmlns="http://www.w3.org/2000/svg" width="80" height="80" viewBox="0 0 80 80">
  <path fill="#FFF" d="M62.5091949,69.2100531 L49.5790764,69.2100531 L46.097262,69.2100531 L45.3453208,69.2100531 L45.3453208,51.866367 L51.0175725,51.866367 C52.4560687,51.866367 53.3060891,50.2317123 52.4560687,49.0547609 L41.4221496,33.7870862 C40.7192481,32.8062934 39.2644054,32.8062934 38.5615039,33.7870862 L27.5275848,49.0547609 C26.6775644,50.2317123 27.5112383,51.866367 28.9660809,51.866367 L34.6383327,51.866367 L34.6383327,69.2100531 L33.8863915,69.2100531 L30.404577,69.2100531 L15.4147936,69.2100531 C6.83285656,68.7360033 0,60.7098488 0,52.0134859 C0,46.0143032 3.25296281,40.7834083 8.07519412,37.9554557 C7.63383735,36.7621577 7.4049857,35.4871271 7.4049857,34.1467103 C7.4049857,28.0167552 12.3579894,23.0637515 18.4879444,23.0637515 C19.8120147,23.0637515 21.0870454,23.2926032 22.2803433,23.73396 C25.8275439,16.2145484 33.4777278,11 42.3702493,11 C53.8782182,11.0163465 63.3592154,19.8271353 64.4380875,31.0572129 C73.2815693,32.5774418 80,40.7670617 80,50.0355537 C80,59.9415611 72.2844299,68.5234982 62.5091949,69.2100531 Z"/>
</svg>
