<svg xmlns="http://www.w3.org/2000/svg" width="35" height="35"><path d="M33 18.459V16.54h-4.72c-.2-2.265-1.1-4.332-2.483-5.982l3.341-3.341-1.356-1.356-3.34 3.34a10.775 10.775 0 0 0-5.983-2.482V2H16.54v4.72c-2.265.2-4.332 1.1-5.982 2.483l-3.34-3.341-1.356 1.356 3.34 3.34a10.775 10.775 0 0 0-2.482 5.983H2v1.918h4.72c.2 2.265 1.1 4.332 2.483 5.982l-3.341 3.341 1.356 1.356 3.34-3.34a10.775 10.775 0 0 0 5.983 2.482V33h1.918v-4.72c2.265-.2 4.332-1.1 5.982-2.483l3.341 3.341 1.356-1.356-3.34-3.34a10.775 10.775 0 0 0 2.482-5.983H33zm-15.5 7.947c-4.91 0-8.906-3.995-8.906-8.906 0-4.91 3.995-8.906 8.906-8.906 4.91 0 8.906 3.995 8.906 8.906 0 4.91-3.995 8.906-8.906 8.906z"/></svg>