<svg xmlns="http://www.w3.org/2000/svg" width="35" height="35"><path d="M31.907 28.83a.761.761 0 0 0-.09-.407L18.635 5.378c0-.003-.006-.006-.006-.01a.865.865 0 0 0-.162-.185c-.019-.017-.035-.033-.058-.05-.016-.012-.029-.032-.048-.042-.039-.023-.081-.026-.123-.042-.039-.013-.074-.03-.113-.04C18.073 5 18.022 5 17.97 5c-.052 0-.1 0-.152.01-.042.01-.078.026-.116.039-.042.016-.088.02-.126.042-.02.013-.03.03-.046.043a.445.445 0 0 0-.058.052.78.78 0 0 0-.161.182c0 .004-.007.004-.007.01L4.123 28.423c-.02.03-.02.062-.033.094-.022.046-.035.098-.051.15-.003.026-.013.05-.013.072-.007.043-.026.082-.026.124 0 .43.349.783.775.783h26.363c.362 0 .65-.255.737-.59a.845.845 0 0 0 .026-.124c0-.023.013-.043.013-.069 0-.013-.007-.02-.007-.033zm-25.8-.75L17.97 7.345 29.833 28.08H6.106z"/></svg>