<svg xmlns="http://www.w3.org/2000/svg" width="250" height="58"><g fill="#FFF" fill-rule="evenodd"><path d="M85.386 16.546c-2.839 0-4.975.643-6.409 1.93-1.434 1.286-2.151 3.156-2.151 5.61v3.548h14.193v3.814H76.826V44h-4.435V24.042c0-3.578 1.13-6.38 3.393-8.405 2.262-2.026 5.418-3.038 9.469-3.038 1.774 0 3.43.2 4.967.599 1.538.399 2.868.983 3.992 1.751l-1.464 3.682c-1.98-1.39-4.435-2.085-7.362-2.085zm21.682 27.72c-2.277 0-4.036-.628-5.278-1.885-1.242-1.256-1.863-3.023-1.863-5.3v-25.99h4.258v25.635c0 1.272.303 2.247.91 2.928.605.68 1.514 1.02 2.727 1.02a4.97 4.97 0 0 0 2.084-.444l.222 3.504a8.885 8.885 0 0 1-3.06.532zm30.02-23.773v20.314c0 4.11-.961 7.148-2.883 9.114-1.922 1.966-4.805 2.95-8.649 2.95-2.1 0-4.102-.304-6.01-.91-1.907-.606-3.466-1.47-4.679-2.594l2.085-3.282c1.035.946 2.284 1.685 3.748 2.217 1.463.532 3.008.798 4.634.798 2.573 0 4.465-.643 5.678-1.929 1.212-1.286 1.818-3.26 1.818-5.92v-1.73c-.858 1.123-1.966 1.988-3.326 2.594-1.36.606-2.839.91-4.436.91-3.134 0-5.603-.858-7.406-2.573-1.804-1.715-2.706-4.258-2.706-7.629v-12.33h4.258v11.842c0 2.248.547 3.955 1.64 5.123 1.095 1.168 2.662 1.752 4.702 1.752 2.247 0 4.021-.68 5.322-2.04 1.301-1.36 1.952-3.282 1.952-5.766v-10.91h4.258zm19.375 23.773c-2.395 0-4.531-.517-6.409-1.552-1.877-1.035-3.348-2.462-4.413-4.28-1.064-1.819-1.596-3.881-1.596-6.187 0-2.307.532-4.369 1.596-6.187 1.065-1.819 2.536-3.238 4.413-4.258 1.878-1.02 4.014-1.53 6.41-1.53 2.128 0 4.028.428 5.698 1.286a9.161 9.161 0 0 1 3.881 3.725l-3.237 2.085c-.74-1.124-1.656-1.966-2.75-2.528s-2.307-.843-3.637-.843c-1.538 0-2.92.34-4.147 1.02a7.27 7.27 0 0 0-2.883 2.905c-.695 1.257-1.042 2.698-1.042 4.325 0 1.656.347 3.112 1.042 4.368a7.27 7.27 0 0 0 2.883 2.905c1.227.68 2.61 1.02 4.147 1.02 1.33 0 2.543-.28 3.637-.842 1.094-.562 2.01-1.405 2.75-2.528l3.237 2.04a9.3 9.3 0 0 1-3.88 3.748c-1.671.872-3.57 1.308-5.7 1.308zm37.915-23.773V44h-4.08v-3.726a9.22 9.22 0 0 1-3.593 2.972c-1.449.68-3.046 1.02-4.79 1.02-2.277 0-4.317-.503-6.12-1.508a10.805 10.805 0 0 1-4.236-4.235c-1.02-1.819-1.53-3.91-1.53-6.276 0-2.366.51-4.45 1.53-6.254a10.846 10.846 0 0 1 4.235-4.213c1.804-1.006 3.844-1.508 6.12-1.508 1.686 0 3.239.318 4.658.953a9.04 9.04 0 0 1 3.548 2.817v-3.549h4.258zM182.27 40.541c1.478 0 2.823-.348 4.036-1.043a7.313 7.313 0 0 0 2.838-2.927c.68-1.257 1.02-2.698 1.02-4.324 0-1.627-.34-3.068-1.02-4.325-.68-1.256-1.626-2.225-2.838-2.905-1.213-.68-2.558-1.02-4.036-1.02-1.508 0-2.86.34-4.058 1.02-1.198.68-2.144 1.649-2.839 2.905-.695 1.257-1.042 2.698-1.042 4.325 0 1.626.347 3.067 1.042 4.324.695 1.257 1.641 2.232 2.839 2.927 1.197.695 2.55 1.043 4.058 1.043zm25.274-16.1c.74-1.36 1.833-2.395 3.282-3.105s3.208-1.064 5.278-1.064v4.124a8.312 8.312 0 0 0-.976-.044c-2.306 0-4.117.688-5.433 2.062-1.316 1.375-1.974 3.334-1.974 5.877V44h-4.257V20.493h4.08v3.948zm36.762-13.35V44h-4.08v-3.726a9.22 9.22 0 0 1-3.593 2.972c-1.45.68-3.046 1.02-4.79 1.02-2.277 0-4.317-.503-6.121-1.508a10.805 10.805 0 0 1-4.236-4.235c-1.02-1.819-1.53-3.91-1.53-6.276 0-2.366.51-4.45 1.53-6.254a10.846 10.846 0 0 1 4.236-4.213c1.804-1.006 3.844-1.508 6.12-1.508 1.686 0 3.238.318 4.658.953a9.04 9.04 0 0 1 3.548 2.817V11.09h4.258zm-12.109 29.45c1.479 0 2.824-.348 4.036-1.043a7.313 7.313 0 0 0 2.839-2.927c.68-1.257 1.02-2.698 1.02-4.324 0-1.627-.34-3.068-1.02-4.325-.68-1.256-1.626-2.225-2.839-2.905-1.212-.68-2.557-1.02-4.036-1.02-1.508 0-2.86.34-4.058 1.02-1.197.68-2.143 1.649-2.838 2.905-.695 1.257-1.043 2.698-1.043 4.325 0 1.626.348 3.067 1.043 4.324.695 1.257 1.64 2.232 2.838 2.927 1.198.695 2.55 1.043 4.058 1.043z"/><path fill-rule="nonzero" d="M0 57.464S18.682-2.26 57.578.188c0 0-4.824 7.813-16.999 10.337 0 0 5.668.692 10.261-.84 0 0-2.756 8.885-17.762 10.106 0 0 8.27 2.144 11.944.918 0 0-.997 6.623-16.275 9.915-.905.193-7.003 1.72-2.104 2.333 0 0 7.042 1.23 8.884.614 0 0-6.032 9.033-20.829 8.268-1.455-.076-2.146 0-2.146 0L0 57.464z"/></g></svg>